<svg width="38" height="40" viewBox="0 0 38 40" fill="none" xmlns="http://www.w3.org/2000/svg">
<path d="M32.6848 15.2101V13.6723C32.6848 9.9916 31.3822 6.57143 29.0209 4.03361C26.6007 1.42857 23.273 0 19.6427 0H18.3738C14.7436 0 11.4159 1.42857 8.99569 4.03361C6.63434 6.57143 5.33182 9.9916 5.33182 13.6723V15.2101C2.46628 15.4034 0.188965 17.7899 0.188965 20.7059V23.1092C0.188965 26.1429 2.65955 28.6134 5.69317 28.6134H8.79401C9.34863 28.6134 9.80241 28.1597 9.80241 27.605V16.2017C9.80241 15.6471 9.34863 15.1933 8.79401 15.1933H7.34863V13.6723C7.34863 7.02521 12.0881 2.01681 18.3654 2.01681H19.6343C25.9201 2.01681 30.6512 7.02521 30.6512 13.6723V15.1933H29.2058C28.6512 15.1933 28.1974 15.6471 28.1974 16.2017V27.5966C28.1974 28.1513 28.6512 28.605 29.2058 28.605H30.6175C30.2058 33.8655 26.5839 35.084 24.9033 35.3613C24.4411 33.9412 23.1049 32.916 21.5335 32.916H19.0125C17.0629 32.916 15.4747 34.5042 15.4747 36.4538C15.4747 38.4034 17.0629 40 19.0125 40H21.5419C23.1722 40 24.5419 38.8908 24.9537 37.395C25.7772 37.2773 27.0797 36.9832 28.3738 36.2269C30.1974 35.1597 32.357 32.9832 32.6427 28.5966C35.5251 28.4202 37.8108 26.0252 37.8108 23.1008V20.6975C37.8192 17.7899 35.5503 15.395 32.6848 15.2101ZM7.80241 26.5882H5.70997C3.7856 26.5882 2.22258 25.0252 2.22258 23.1008V20.6975C2.22258 18.7731 3.7856 17.2101 5.70997 17.2101H7.80241V26.5882ZM21.5419 37.9832H19.0125C18.1722 37.9832 17.4915 37.3025 17.4915 36.4622C17.4915 35.6218 18.1722 34.9412 19.0125 34.9412H21.5419C22.3822 34.9412 23.0629 35.6218 23.0629 36.4622C23.0629 37.3025 22.3822 37.9832 21.5419 37.9832ZM35.8024 23.1008C35.8024 25.0252 34.2394 26.5882 32.315 26.5882H30.2226V17.2101H32.315C34.2394 17.2101 35.8024 18.7731 35.8024 20.6975V23.1008Z" fill="#00B307"/>
</svg>
